<?xml version="1.0" encoding="utf-8"?>
<!-- Generator: Adobe Illustrator 25.2.3, SVG Export Plug-In . SVG Version: 6.00 Build 0)  -->
<!DOCTYPE svg PUBLIC "-//W3C//DTD SVG 1.1//EN" "http://www.w3.org/Graphics/SVG/1.1/DTD/svg11.dtd" [
	<!ENTITY ns_extend "http://ns.adobe.com/Extensibility/1.0/">
	<!ENTITY ns_ai "http://ns.adobe.com/AdobeIllustrator/10.0/">
	<!ENTITY ns_graphs "http://ns.adobe.com/Graphs/1.0/">
	<!ENTITY ns_vars "http://ns.adobe.com/Variables/1.0/">
	<!ENTITY ns_imrep "http://ns.adobe.com/ImageReplacement/1.0/">
	<!ENTITY ns_sfw "http://ns.adobe.com/SaveForWeb/1.0/">
	<!ENTITY ns_custom "http://ns.adobe.com/GenericCustomNamespace/1.0/">
	<!ENTITY ns_adobe_xpath "http://ns.adobe.com/XPath/1.0/">
]>
<svg version="1.1" id="Layer_1" xmlns:x="&ns_extend;" xmlns:i="&ns_ai;" xmlns:graph="&ns_graphs;"
	 xmlns="http://www.w3.org/2000/svg" xmlns:xlink="http://www.w3.org/1999/xlink" x="0px" y="0px" viewBox="0 0 95.4 97.3"
	 style="enable-background:new 0 0 95.4 97.3;" xml:space="preserve">
<style type="text/css">
	.st0{fill:#131313;}
</style>
<metadata>
	<sfw  xmlns="&ns_sfw;">
		<slices></slices>
		<sliceSourceBounds  bottomLeftOrigin="true" height="94.1" width="94.2" x="1" y="984.1"></sliceSourceBounds>
	</sfw>
</metadata>
<g>
	<g>
		<path class="st0" d="M77.7,94.8c-1.4,1.2-4.6,1.6-5.9,0.4c-1.9-1.6-4-3.5-5.5-5.3c-1.5-1.9-1.8-2.6-2.8-4.2
			c-1.1-1.7-1.7-2.7-2.8-4.4c-1.2-1.9-2.4-3.4-3.4-5.1c-1.6-2.6-0.4-5.6,2.7-6.8c1.2-0.4,0,0,3.4-1.5c3.8-2.2,4.7-6.2,2.5-9.7
			c-2.1-3.2-4.2-5.9-6.4-8.7c-1.8-2.2-3.7-4.3-5.6-6.4l0,0c-2.1-2-4.1-3.8-6.4-5.6c-2.8-2.3-5.5-4.4-8.7-6.4
			c-3.5-2.2-7.5-1.4-9.7,2.5c-1.5,3.4-1.1,2.2-1.5,3.4c-1.1,3-4.2,4.2-6.8,2.7c-1.7-1-3.2-2.2-5.1-3.4c-1.7-1.1-2.7-1.7-4.4-2.8
			c-1.6-1-2.3-1.3-4.2-2.8c-1.8-1.4-3.7-3.6-5.3-5.5c-1.1-1.3-0.8-4.5,0.4-5.9c6-6.9,13.6-10.2,22.6-10.6c8.3-0.4,15.6,2.7,22.6,6.9
			c1.8,1.1,3.4,2.3,5,3.5c1.7,1.3,2.7,2.2,4.3,3.5c1.7,1.3,3.3,2.9,4.8,4.5l4.2,4.2l0,0l4.2,4.2c1.5,1.5,3.1,3.1,4.5,4.8
			c1.3,1.6,2.2,2.6,3.5,4.3c1.2,1.6,2.4,3.3,3.5,5c4.3,7,7.3,14.2,6.9,22.6C87.9,81.2,84.6,88.8,77.7,94.8z"/>
		<path class="st0" d="M51.6,68c-2-1.9-3.8-3.7-5.6-5.5c-2-1.9-3.8-3.9-5.7-5.9l0,0c-2-1.8-4-3.7-5.9-5.7c-1.8-1.9-3.6-3.7-5.5-5.6
			c-1-1.1-1.2-1.5,0.4-2c0.8-0.3,1.4-0.6,2.2-0.8c5.7-1.7,6.3-3,14.7,0.8c0.4,0.2,1.1,0.6,1.4,0.9c0.9,0.8,1.8,1.7,2.6,2.6l0,0
			c0.9,0.9,1.8,1.7,2.6,2.6c0.3,0.3,0.7,1,0.9,1.4c3.8,8.4,2.5,9,0.8,14.7c-0.2,0.7-0.5,1.3-0.8,2.2C53,69.2,52.6,69.1,51.6,68z"/>
		<path class="st0" d="M28.1,90c-0.9,0.2-2.1,0.7-3,0.9c-4.1,1.2-7.6,1.4-12.2,1.8C9.5,92.5,8.1,92,5.7,92c-0.3,0-0.5,0-0.6-0.1l0,0
			c-0.1-0.1-0.1-0.3-0.1-0.6c0-2.4-0.5-3.8-0.7-7.2C4.6,79.5,4.9,76,6,71.9c0.2-0.9,0.7-2.1,0.9-3c0.3-0.9,0.4-1.1,1-0.5
			c2.2,2.1,3.6,3.4,5.5,5.2c1.6,1.6,3.2,3.3,4.9,4.9l0,0c1.7,1.6,3.3,3.2,4.9,4.9c1.8,1.9,3.1,3.3,5.2,5.5
			C29.2,89.6,29,89.7,28.1,90z"/>
	</g>
	<g>
		<path class="st0" d="M38.4,84.8c-1.1,0.5-1.1,0.1-1.6-0.4c-0.7-0.8-1.2-1.3-1.9-2c-3.4-3.4-6.8-6.8-10.2-10.2l0,0
			c-3.4-3.4-6.8-6.8-10.2-10.2c-0.7-0.7-1.2-1.2-2-1.9c-0.5-0.5-0.9-0.5-0.4-1.6c1.7-3.5,4.7-5.9,7.3-8.6c0.4-0.4,0.9-0.6,1.2-0.3
			c1.5,1.5,2.3,2.2,3.6,3.6c3.2,3.3,6.4,6.5,9.6,9.8l0,0c3.2,3.2,6.5,6.4,9.8,9.6c1.4,1.3,2.1,2.1,3.6,3.6c0.3,0.3,0.1,0.8-0.3,1.2
			C44.3,80.1,41.8,83.2,38.4,84.8z"/>
		<path class="st0" d="M91.5,35.5c-1.6,0-3-0.1-3.2-2.2c-0.1-0.7-0.2-1.7-0.3-2.3c-0.7-3.3-1.9-3.1-3.3-3.2
			c-1.9-0.2-2.9,0.1-2.7,2.1c0.4,3-0.2,4.9-0.8,7.7c0,0.3-0.4,0.6-0.7,0.7c-0.6,0.2-0.8,0.1-1.2-0.3c-0.9-1-1.2-1.4-1.9-2
			c-2.7-2.8-5.5-5.5-8.2-8.2l0,0c-2.7-2.7-5.5-5.5-8.2-8.2c-0.7-0.7-1.1-1-2.1-1.9c-0.4-0.4-0.5-0.6-0.3-1.2
			c0.1-0.3,0.4-0.6,0.7-0.7c2.8-0.5,4.7-1.1,7.7-0.8c2,0.2,2.2-0.7,2.1-2.7c-0.1-1.4,0-2.6-3.2-3.3c-0.6-0.1-1.6-0.3-2.3-0.4
			c-2-0.2-2.2-1.6-2.2-3.2c0-1.6,0.2-2.7,2.1-3.3c3-0.9,5.6-0.5,7.3,1.7c2.2,3.4,2.8,7,0.9,10.7c-0.6,1.1-0.2,1.6,0.6,1.7
			c2.8,0.5,3.1,1,4.2,1.9c0.4,0.3,0.7,0.7,1,1.1l0,0c0.4,0.3,0.7,0.7,1.1,1c0.9,1,1.6,1.6,1.9,4.2c0.1,0.8,0.7,1.2,1.7,0.6
			c3.7-1.9,7.3-1.3,10.7,0.9c2.1,1.6,2.5,4.2,1.7,7.3C94.2,35.3,93.1,35.5,91.5,35.5z"/>
	</g>
</g>
</svg>
