<?xml version="1.0" encoding="utf-8"?>
<!-- Generator: Adobe Illustrator 25.2.3, SVG Export Plug-In . SVG Version: 6.00 Build 0)  -->
<!DOCTYPE svg PUBLIC "-//W3C//DTD SVG 1.1//EN" "http://www.w3.org/Graphics/SVG/1.1/DTD/svg11.dtd" [
	<!ENTITY ns_extend "http://ns.adobe.com/Extensibility/1.0/">
	<!ENTITY ns_ai "http://ns.adobe.com/AdobeIllustrator/10.0/">
	<!ENTITY ns_graphs "http://ns.adobe.com/Graphs/1.0/">
	<!ENTITY ns_vars "http://ns.adobe.com/Variables/1.0/">
	<!ENTITY ns_imrep "http://ns.adobe.com/ImageReplacement/1.0/">
	<!ENTITY ns_sfw "http://ns.adobe.com/SaveForWeb/1.0/">
	<!ENTITY ns_custom "http://ns.adobe.com/GenericCustomNamespace/1.0/">
	<!ENTITY ns_adobe_xpath "http://ns.adobe.com/XPath/1.0/">
]>
<svg version="1.1" id="Layer_1" xmlns:x="&ns_extend;" xmlns:i="&ns_ai;" xmlns:graph="&ns_graphs;"
	 xmlns="http://www.w3.org/2000/svg" xmlns:xlink="http://www.w3.org/1999/xlink" x="0px" y="0px" viewBox="0 0 24 24"
	 style="enable-background:new 0 0 24 24;" xml:space="preserve">
<style type="text/css">
	.st0{fill:#1B2021;fill-opacity:0;}
	.st1{fill:#1B2021;}
</style>
<metadata>
	<sfw  xmlns="&ns_sfw;">
		<slices></slices>
		<sliceSourceBounds  bottomLeftOrigin="true" height="24" width="24" x="0" y="0"></sliceSourceBounds>
	</sfw>
</metadata>
<g>
	<g>
		<rect class="st0" width="24" height="24"/>
		<path class="st1" d="M21,7.2c-0.6-0.3-1.3-0.2-1.9,0.3l-2.1,2V8c0-1.7-1.3-3-3-3H5C3.3,5,2,6.3,2,8v8c0,1.7,1.3,3,3,3h9
			c1.7,0,3-1.3,3-3v-1.4l2.2,2c0.3,0.3,0.7,0.4,1.2,0.5c0.2,0,0.5-0.1,0.7-0.1c0.6-0.2,1-0.8,1-1.5V8.6C22,8,21.6,7.4,21,7.2z
			 M15,16c0,0.6-0.4,1-1,1H5c-0.6,0-1-0.4-1-1V8c0-0.6,0.4-1,1-1h9c0.6,0,1,0.4,1,1V16z M20,14.6L17.2,12L20,9.4V14.6z"/>
	</g>
</g>
</svg>
