<?xml version="1.0" encoding="utf-8"?>
<!-- Generator: Adobe Illustrator 25.2.3, SVG Export Plug-In . SVG Version: 6.00 Build 0)  -->
<!DOCTYPE svg PUBLIC "-//W3C//DTD SVG 1.1//EN" "http://www.w3.org/Graphics/SVG/1.1/DTD/svg11.dtd" [
	<!ENTITY ns_extend "http://ns.adobe.com/Extensibility/1.0/">
	<!ENTITY ns_ai "http://ns.adobe.com/AdobeIllustrator/10.0/">
	<!ENTITY ns_graphs "http://ns.adobe.com/Graphs/1.0/">
	<!ENTITY ns_vars "http://ns.adobe.com/Variables/1.0/">
	<!ENTITY ns_imrep "http://ns.adobe.com/ImageReplacement/1.0/">
	<!ENTITY ns_sfw "http://ns.adobe.com/SaveForWeb/1.0/">
	<!ENTITY ns_custom "http://ns.adobe.com/GenericCustomNamespace/1.0/">
	<!ENTITY ns_adobe_xpath "http://ns.adobe.com/XPath/1.0/">
]>
<svg version="1.1" id="Layer_1" xmlns:x="&ns_extend;" xmlns:i="&ns_ai;" xmlns:graph="&ns_graphs;"
	 xmlns="http://www.w3.org/2000/svg" xmlns:xlink="http://www.w3.org/1999/xlink" x="0px" y="0px" viewBox="0 0 24 24"
	 style="enable-background:new 0 0 24 24;" xml:space="preserve">
<style type="text/css">
	.st0{fill:#1B2021;fill-opacity:0;}
	.st1{fill:#1B2021;}
</style>
<metadata>
	<sfw  xmlns="&ns_sfw;">
		<slices></slices>
		<sliceSourceBounds  bottomLeftOrigin="true" height="24" width="24" x="0" y="0"></sliceSourceBounds>
	</sfw>
</metadata>
<g>
	<g>
		<rect class="st0" width="24" height="24"/>
		<path class="st1" d="M7,6c0.6,0,1-0.4,1-1S7.6,4,7,4H5C4.4,4,4,4.4,4,5v14c0,0.6,0.4,1,1,1h2c0.6,0,1-0.4,1-1s-0.4-1-1-1H6V6H7z"
			/>
		<path class="st1" d="M20.8,11.4l-2.8-4c-0.3-0.4-0.9-0.6-1.4-0.2c-0.5,0.3-0.6,0.9-0.2,1.4l0,0l1.7,2.4H10c-0.6,0-1,0.4-1,1
			s0.4,1,1,1h8l-1.8,2.4c-0.3,0.4-0.2,1.1,0.2,1.4c0.2,0.1,0.4,0.2,0.6,0.2c0.3,0,0.6-0.1,0.8-0.4l3-4
			C21.1,12.3,21.1,11.8,20.8,11.4z"/>
	</g>
</g>
</svg>
