<?xml version="1.0" encoding="utf-8"?>
<!-- Generator: Adobe Illustrator 25.2.3, SVG Export Plug-In . SVG Version: 6.00 Build 0)  -->
<!DOCTYPE svg PUBLIC "-//W3C//DTD SVG 1.1//EN" "http://www.w3.org/Graphics/SVG/1.1/DTD/svg11.dtd" [
	<!ENTITY ns_extend "http://ns.adobe.com/Extensibility/1.0/">
	<!ENTITY ns_ai "http://ns.adobe.com/AdobeIllustrator/10.0/">
	<!ENTITY ns_graphs "http://ns.adobe.com/Graphs/1.0/">
	<!ENTITY ns_vars "http://ns.adobe.com/Variables/1.0/">
	<!ENTITY ns_imrep "http://ns.adobe.com/ImageReplacement/1.0/">
	<!ENTITY ns_sfw "http://ns.adobe.com/SaveForWeb/1.0/">
	<!ENTITY ns_custom "http://ns.adobe.com/GenericCustomNamespace/1.0/">
	<!ENTITY ns_adobe_xpath "http://ns.adobe.com/XPath/1.0/">
]>
<svg version="1.1" id="Layer_1" xmlns:x="&ns_extend;" xmlns:i="&ns_ai;" xmlns:graph="&ns_graphs;"
	 xmlns="http://www.w3.org/2000/svg" xmlns:xlink="http://www.w3.org/1999/xlink" x="0px" y="0px" viewBox="0 0 24 24"
	 style="enable-background:new 0 0 24 24;" xml:space="preserve">
<style type="text/css">
	.st0{fill:#1B2021;fill-opacity:0;}
	.st1{fill:#1B2021;}
</style>
<metadata>
	<sfw  xmlns="&ns_sfw;">
		<slices></slices>
		<sliceSourceBounds  bottomLeftOrigin="true" height="24" width="24" x="0" y="0"></sliceSourceBounds>
	</sfw>
</metadata>
<g>
	<g>
		<rect class="st0" width="24" height="24"/>
		<path class="st1" d="M12,15c2.2,0,4-1.8,4-4V6c0-2.2-1.8-4-4-4S8,3.8,8,6v5C8,13.2,9.8,15,12,15z M10,6c0-1.1,0.9-2,2-2s2,0.9,2,2
			v5c0,1.1-0.9,2-2,2s-2-0.9-2-2V6z"/>
		<path class="st1" d="M19,11c0-0.6-0.4-1-1-1s-1,0.4-1,1c0,2.8-2.2,5-5,5s-5-2.2-5-5c0-0.6-0.4-1-1-1s-1,0.4-1,1
			c0,3.5,2.6,6.4,6,6.9V20H8.9C8.4,20,8,20.4,8,20.9v0.2C8,21.6,8.4,22,8.9,22h6.2c0.5,0,0.9-0.4,0.9-0.9v-0.2
			c0-0.5-0.4-0.9-0.9-0.9H13v-2.1C16.4,17.4,19,14.5,19,11z"/>
	</g>
</g>
</svg>
