<?xml version="1.0" encoding="utf-8"?>
<!-- Generator: Adobe Illustrator 25.2.3, SVG Export Plug-In . SVG Version: 6.00 Build 0)  -->
<!DOCTYPE svg PUBLIC "-//W3C//DTD SVG 1.1//EN" "http://www.w3.org/Graphics/SVG/1.1/DTD/svg11.dtd" [
	<!ENTITY ns_extend "http://ns.adobe.com/Extensibility/1.0/">
	<!ENTITY ns_ai "http://ns.adobe.com/AdobeIllustrator/10.0/">
	<!ENTITY ns_graphs "http://ns.adobe.com/Graphs/1.0/">
	<!ENTITY ns_vars "http://ns.adobe.com/Variables/1.0/">
	<!ENTITY ns_imrep "http://ns.adobe.com/ImageReplacement/1.0/">
	<!ENTITY ns_sfw "http://ns.adobe.com/SaveForWeb/1.0/">
	<!ENTITY ns_custom "http://ns.adobe.com/GenericCustomNamespace/1.0/">
	<!ENTITY ns_adobe_xpath "http://ns.adobe.com/XPath/1.0/">
]>
<svg version="1.1" id="Layer_1" xmlns:x="&ns_extend;" xmlns:i="&ns_ai;" xmlns:graph="&ns_graphs;"
	 xmlns="http://www.w3.org/2000/svg" xmlns:xlink="http://www.w3.org/1999/xlink" x="0px" y="0px" viewBox="0 0 24 24"
	 style="enable-background:new 0 0 24 24;" xml:space="preserve">
<style type="text/css">
	.st0{fill:#1B2021;fill-opacity:0;}
	.st1{fill:#1B2021;}
</style>
<metadata>
	<sfw  xmlns="&ns_sfw;">
		<slices></slices>
		<sliceSourceBounds  bottomLeftOrigin="true" height="24" width="24" x="0" y="0"></sliceSourceBounds>
	</sfw>
</metadata>
<g>
	<g>
		<rect class="st0" width="24" height="24"/>
		<path class="st1" d="M10,6c0-1.1,0.9-2,2-2s2,0.9,2,2v5c0,0.1,0,0.1,0,0.2l1.6,1.6c0.3-0.5,0.4-1.1,0.4-1.8V6c0-2.2-1.8-4-4-4
			c-1.9,0-3.5,1.4-3.9,3.2l1.9,2V6z"/>
		<path class="st1" d="M19,11c0-0.6-0.4-1-1-1s-1,0.4-1,1c0,0.9-0.2,1.7-0.7,2.5l1.5,1.5C18.6,13.8,19,12.4,19,11z"/>
		<path class="st1" d="M12,15h0.2L8,10.8V11C8,13.2,9.8,15,12,15z"/>
		<path class="st1" d="M20.7,19.3l-16-16c-0.4-0.4-1-0.4-1.4,0s-0.4,1,0,1.4l16,16c0.4,0.4,1,0.4,1.4,0l0,0
			C21.1,20.3,21.1,19.7,20.7,19.3L20.7,19.3z"/>
		<path class="st1" d="M15,20h-2v-2.1c0.6-0.1,1.1-0.2,1.6-0.4L13,15.9C12.7,16,12.4,16,12,16c-2.8,0-5-2.2-5-5c0-0.6-0.4-1-1-1
			s-1,0.4-1,1c0,3.5,2.6,6.4,6,6.9V20H9c-0.6,0-1,0.4-1,1s0.4,1,1,1h6c0.6,0,1-0.4,1-1S15.6,20,15,20z"/>
	</g>
</g>
</svg>
